<svg xmlns="http://www.w3.org/2000/svg" version="1.2" viewBox="0 0 1400 1400">
  <style>
		tspan { white-space:pre } 
		.s0 { fill: #3cb759 } 
		.t1 { font-size: 62px;text-transform: uppercase;fill: #ffffff;font-weight: 800;font-family: "Alfabet" } 
		.s2 { fill: #484b4a } 
	</style>
  <g id="Layer 1">
    <g id="&lt;Group&gt;">
      <g id="&lt;Group&gt;">
        <g id="&lt;Group&gt;">
          <path id="&lt;Compound Path&gt;" class="s0" d="m1143.95 768.74c5.76-3.68 6.28-5.74 3.36-12.06-2.76-6-6.78-11.42-5.94-18.82 0.88-7.66 0.42-15.48 0.8-23.2 0.2-3.82-1.18-6.78-4.36-8.42-10.84-5.62-21.72-11.22-32.8-16.34-7.4-3.4-15.12-6.14-22.78-8.92-10.14-3.7-20.34-7.28-30.6-10.66-6.66-2.2-13.46-4.02-20.22-5.88-6.62-1.84-13.26-3.64-19.94-5.18-8.66-1.98-17.38-3.72-26.08-5.52-12.96-2.68-26.06-4.84-38.86-8.12-8.82-2.26-18.68 0.46-26.66-5.66-1.98-1.5-4.18-2.7-6.36-3.9-10.22-5.64-20.5-11.18-30.72-16.86-7.9-4.36-15.58-9.14-23.6-13.26-14.1-7.2-28.3-14.24-42.66-20.96-11-5.14-22.26-9.72-33.48-14.38-4.3-1.78-8.78-3.14-13.22-4.62-6.78-2.26-13.5-4.66-20.38-6.6-6.72-1.88-13.6-3.34-20.42-4.86-8.62-1.94-17.2-4.72-25.92-5.4-27.98-2.16-56.04-3.54-81.46-5.06-12.56 0.62-22.48 0.86-32.36 1.66-15.54 1.28-31.1 2.46-46.54 4.58-18.96 2.58-37.78 6-56.64 9.22-7.78 1.34-15.5 2.94-23.2 4.64-9.66 2.1-19.28 4.44-28.9 6.66-5.56 1.3-11.12 2.54-16.66 3.88-6.48 1.6-13 3.02-19.36 4.98-10.36 3.18-20.62 6.68-30.88 10.18-9.18 3.14-18.28 6.48-27.42 9.7-9.14 3.22-18.08 7.32-27.48 9.38-15.04 3.3-30.38 5.28-45.6 7.72-5.24 0.84-7.4 3-7.52 8.26-0.22 11.42-0.3 22.86-0.6 34.28-0.1 3.9 1.12 6.54 4.66 8.7 1.74 1.08 3.38 4.4 3.06 6.4-0.88 5.92-2.66 11.74-4.28 17.54-1.46 5.14-2.34 10.7-4.96 15.2-4.4 7.56-5.98 15.36-6.02 23.94-0.06 13.36 0.64 26.4 7.44 38.46 3.26 5.76 6.48 11.6 1.96 18.78-2.32 3.7 2 10.32 5.96 10.92 4.98 0.74 9.94 1.78 14.96 2.14 14.74 1.1 29.56 1.5 44.26 3.02 8.56 0.86 16.9 2.9 24.28-3.42 0.24-0.2 0.64-0.24 0.96-0.32 8.6-2.08 12.78 0.8 15.92 9.04 2.18 5.7 5.22 11.42 9.14 16.04 11.44 13.4 23.96 25.58 42.76 27.82 0.34 0.04 0.64 0.3 0.96 0.34 4.98 0.66 9.96 1.98 14.92 1.82 9.54-0.3 18.74-2 27.6-6.38 8.14-4.04 15.58-8.62 22.38-14.66 7.74-6.9 12.08-15.92 16.94-24.62 2.34-4.18 5.5-3.82 9.02-3.18 3.74 0.68 3.96 3.58 3.84 6.62-0.06 1.16-0.16 0-0.06 1.16 0.32 4.32 7.98 5.62 12.02 4.42 7.52-2.22 9.06-3.2 16.78-4.1 15.84-1.82 31.8-3.48 47.72-3.52 48.3-0.14 96.6 0.54 144.9 0.88 51.84 0.38 103.66 0.72 155.5 1.14 3.88 0.04 7.06-0.6 10.04-3.48 3.94-3.8 10.22-2.28 13.06 2.52 2.52 4.28 4.84 8.78 7.92 12.64 6.6 8.26 14.12 15.34 23.54 20.78 6.62 3.82 13.44 5.72 20.5 8.04 13.6 4.44 26.52 0.7 39.1-2.1 7.76-1.74 15.12-7.92 21.26-13.62 7.14-6.64 12.82-14.88 18.98-22.56 3.92-4.86 8.72-5.3 12.3-0.28 2 2.82 4.18 3.74 7.24 2.94 7.26-1.94 14.48-4.02 21.74-5.98 7.44-1.98 14.88-4.02 22.36-5.82 6.96-1.66 14.02-2.96 21-4.58 3.54-0.82 7.26-1.56 10.44-3.2 2.26-1.16 4.64-3.48 5.42-5.8 1.1-3.28-2.24-3.18-4.46-3.82-1.12-0.32-2.42-1.36-2.9-2.4-2.6-5.64 0.16-14.64 5.3-17.92z"/>
        </g>
      </g>
      <g id="&lt;Group&gt;">
        <text id="BOISE " style="transform: matrix(2,0,0,2,568.218,757.128)">
          <tspan x="0" y="0" class="t1">BOISE
</tspan>
        </text>
        <g id="&lt;Group&gt;">
          <path id="&lt;Path&gt;" class="s2" d="m511.67 732.41c0.84-1.65 1.34-2.58 1.79-3.54 8.91-18.93 17.83-37.86 26.68-56.82 0.77-1.64 1.7-2.26 3.51-2.23 6.15 0.1 12.31 0.04 18.92 0.04-0.44 1.14-0.71 1.95-1.07 2.72-12.86 27.29-25.75 54.56-38.54 81.88-0.97 2.06-2.17 2.71-4.38 2.64-5.26-0.15-10.52-0.11-15.78 0.03-2 0.05-3.07-0.61-3.93-2.46-10.3-21.98-20.71-43.91-30.99-65.91-1.07-2.3-2.36-3.13-4.91-3.11-18.68 0.12-37.36 0.09-56.03 0.1-1.92 0.01-3.58 0.13-5.12 1.79-0.94 1.01-2.9 1.25-4.46 1.46-2.93 0.4-6.01-0.68-8.66 1.9-1.37 1.34-3.94-0.12-4.09-2.33-0.17-2.34-1.38-2.57-3.22-2.51-2.35 0.08-4.73 0.16-7.06-0.07-0.82-0.08-1.56-1.06-2.33-1.63 0.78-0.57 1.52-1.57 2.34-1.64 2.61-0.22 5.26-0.16 7.88-0.08 1.65 0.05 2.27-0.61 2.24-2.23-0.16-9.2 1.25-7.2-7.09-7.44-0.91-0.02-1.89 0.21-2.7-0.07-0.96-0.32-1.79-1.06-2.67-1.62 0.85-0.59 1.65-1.59 2.55-1.69 2.34-0.24 4.71-0.16 7.06-0.06 1.82 0.09 2.78-0.28 2.98-2.41 0.24-2.55 2.73-3.34 4.9-2.07 1.3 0.76 2.88 1.38 4.36 1.45 3.43 0.17 6.83-0.29 9.52 2.79 0.7 0.8 2.73 0.56 4.16 0.56 23.57 0.02 47.14 0.1 70.71-0.08 3.39-0.03 4.86 1.13 6.2 4.07 8.44 18.56 17.09 37.01 25.67 55.5 0.37 0.8 0.8 1.57 1.56 3.07z"/>
        </g>
        <g id="&lt;Group&gt;">
          <path id="&lt;Path&gt;" class="s2" d="m405.37 706.7v15.68h65.29v-1.52l-6.46-14.16z"/>
        </g>
        <g id="&lt;Group&gt;">
          <path id="&lt;Path&gt;" class="s2" d="m480.06 741.45h-74.69v15.68h81.85z"/>
        </g>
      </g>
    </g>
  </g>
</svg>
